/* XPM */
static char *rasviewer[] = {
/* columns rows colors chars-per-pixel */
"32 32 192 2 ",
"   c black",
".  c #060301",
"X  c #010304",
"o  c #020304",
"O  c #0C0502",
"+  c #020709",
"@  c #03080A",
"#  c #693814",
"$  c #683E18",
"%  c #7C4318",
"&  c #7A4B1E",
"*  c #675127",
"=  c #65532B",
"-  c #646B36",
";  c #646C36",
":  c #646C37",
">  c #636C38",
",  c #235159",
"<  c #295658",
"1  c #15577D",
"2  c #175D7F",
"3  c #1C637E",
"4  c #25707A",
"5  c #28747B",
"6  c #46644F",
"7  c #406553",
"8  c #616E47",
"9  c #686B40",
"0  c #6E7C41",
"q  c #6B7D44",
"w  c #697E46",
"e  c #707A40",
"r  c #A6511B",
"t  c #A5551E",
"y  c #B65B1F",
"u  c #9D5A23",
"i  c #B55E22",
"p  c #9B6228",
"a  c #B36124",
"s  c #B26A29",
"d  c #B26B2A",
"f  c #B16C2B",
"g  c #B06E2D",
"h  c #B1712E",
"j  c #AE7632",
"k  c #AE7A35",
"l  c #B07431",
"z  c #3C8471",
"x  c #30817A",
"c  c #348478",
"v  c #6C8349",
"b  c #6E8348",
"n  c #68854D",
"m  c #718144",
"M  c #67975F",
"N  c #6E9458",
"B  c #68975E",
"V  c #478767",
"C  c #4A8864",
"Z  c #4B8864",
"A  c #42886C",
"S  c #518A60",
"D  c #619A65",
"F  c #7DBA7E",
"G  c #949F53",
"H  c #A98C42",
"J  c #A5994B",
"K  c #A6994A",
"L  c #A0994F",
"P  c #8CA459",
"I  c #8BA75D",
"U  c #91A356",
"Y  c #9AA358",
"T  c #9BAD5C",
"R  c #99AE5E",
"E  c #A1A353",
"W  c #8EAC68",
"Q  c #8EB96D",
"!  c #85B171",
"~  c #8ABC70",
"^  c #053A85",
"/  c #053F8B",
"(  c #0C4680",
")  c #0E4F82",
"_  c #0E5289",
"`  c #165C81",
"'  c #125A8C",
"]  c #1A688F",
"[  c #186591",
"{  c #22728A",
"}  c #247488",
"|  c #287B8E",
" . c #297792",
".. c #247891",
"X. c #004CFD",
"o. c #004DFD",
"O. c #0254FB",
"+. c #0255FB",
"@. c #0459F9",
"#. c #065BF9",
"$. c #0458FB",
"%. c #065CF8",
"&. c #065EF8",
"*. c #0D79EE",
"=. c #0D7AEE",
"-. c #0E7AEF",
";. c #0F7FEF",
":. c #117FE9",
">. c #0768F4",
",. c #096CF3",
"<. c #0A70F3",
"1. c #0C75F0",
"2. c #0C76F1",
"3. c #0C77F1",
"4. c #0C78F0",
"5. c #2D848C",
"6. c #3F8386",
"7. c #30868B",
"8. c #378EA6",
"9. c #3EA8B1",
"0. c #3EA9B3",
"q. c #4A9A97",
"w. c #5DBC99",
"e. c #76B985",
"r. c #61B89A",
"t. c #4FAFA4",
"y. c #59AEA2",
"u. c #4AB0A7",
"i. c #59B1A2",
"p. c #59B6A1",
"a. c #56BCA2",
"s. c #47A9B3",
"d. c #45ADB0",
"f. c #40ABB7",
"g. c #46ACB6",
"h. c #40BCB9",
"j. c #41BCB9",
"k. c #42BDB9",
"l. c #41BDBA",
"z. c #5ECA9B",
"x. c #59C89F",
"c. c #5CC99D",
"v. c #6BCC8F",
"b. c #73C382",
"n. c #74C382",
"m. c #63C792",
"M. c #62C794",
"N. c #66CE93",
"B. c #65CE95",
"V. c #64CE96",
"C. c #68CC90",
"Z. c #69CD91",
"A. c #68CE92",
"S. c #60CC9A",
"D. c #4DC3AC",
"F. c #56C6A3",
"G. c #56C8A3",
"H. c #51C5A8",
"J. c #50C4AA",
"K. c #47C0B3",
"L. c #1D93DF",
"P. c #279CD5",
"I. c #259ED7",
"U. c #289AD5",
"Y. c #2195DB",
"T. c #1BA6DF",
"R. c #1FA9DC",
"E. c #1DAADD",
"W. c #2DA2CD",
"Q. c #2DAACE",
"!. c #2DB3CC",
"~. c #2EB5CC",
"^. c #33B0C8",
"/. c #25AFD5",
"(. c #2BA9D0",
"). c #29A9D2",
"_. c #22ADD8",
"`. c #20ACDA",
"'. c #27B0D3",
"]. c #1583E7",
"[. c #1989E3",
"{. c #1085EA",
"}. c #1685E9",
"|. c #1081EF",
" X c #1185ED",
".X c #118AE9",
"XX c #118AEB",
"oX c #1493E7",
"OX c #1596E7",
"+X c #179CE4",
"@X c #179EE4",
"#X c None",
/* pixels */
"#X#X#X#X#X#X#X#X#X#X#X#X#X#X#X#X#X#X#X#X#X#X#X#X#X#X#X#X#X#X#X#X",
"#X#X#X#X#X#X#X#X#X#X#X#X#X#X#X#X#X#X#X#X#X#X#X#X#X#X#X#X#X#X#X#X",
"#X#X#X#X#X#X#X#X#X#X#X#X#X#X#X#X#X#X#X#X#X#X#X#X#X#X#X#X#X#X#X#X",
"#X#X#X#X#X#X#X#X#X#X#X#X#X#X#X&.+.#X#X#X#X#X#X#X#X#X#X#X#X#X#X#X",
"#X#X#X#X#X#X#X#X#X#X#X#X#X#X#XOX.X#X#X#X#X#X#X#X#X#X#X#X#X#X#X#X",
"#X#X#X#X#X#X#X#X#X#X#X#X#X#X#X~.'.#X#X#X#X#X#X#X#X#X#X#X#X#X#X#X",
"#X#X#X#X#X#X  #X#X#X#X#X#X#X Xx.H.*.#X#X#X#X#X#X#X#X#X#X#X#X#X#X",
"#X#X#X#X#X#X#X#X#X#X#X#X#X#XU.v.A.[.#X#X#X#X#X#X#X#X#X#X#X#X#X#X",
"#X#X#X#X#X#X#X#X#X#X#X#X#X#X} N D ] #X#X#X#X#X#X#X#X#X#X#X#X#X#X",
"#X#X#X#XX.<.*.3.#X#X#X#X#X#X7.e 0  .#X#X#X#X#X#X3.3.>.X.#X#X#X#X",
"#X#X#X#X#X4._.j.j.I.^ #X#X#Xt.H K 9.#X#X#X( W.k.j.E.,.#X#X#X#X#X",
"#X#X#X#X#X#X+XF.C.n.V 4 #X#Xy.d j s.#X#X5 V e.m.D.oX#X#X#X#X#X#X",
"#X#X#X#X#X#X#XI.S.b - R e.#X6.# $  .#XF R - n x.L.#X#X#X#X#X#X#X",
"#X#X#X#X#X#X#X#X) A P a i = X     o * i f I z 1 #X#X#X#X#X#X#X#X",
"#X#X#X#X#X#X#X#X#X#Xd.W u .         . p ! f.#X#X#X#X#X#X#X#X#X#X",
"#X#X#X#X#X#X#X#X#X#X#X#X<             , #X#X#X#X#X#X#X#X#X#X#X#X",
"#X#X#X#X#X#X#X#X#X#X#X#X6             7 #X#X#X#X#X#X#X#X#X#X#X#X",
"#X#X#X#X#X#X#X#X#X' w.L r O         O t Y a._ #X#X#X#X#X#X#X#X#X",
"#X#X#X#X#X#X#X#X3 S G d l 8 @     @ 9 g h U Z ` #X#X#X#X#X#X#X#X",
"#X#X#X#X#X#X#X^.A.m : ~ p.#Xq.% & 8.#Xr.Q : b V.).#X#X#X#X#X#X#X",
"#X#X#X#X#X#XT.c.N.M.x 1 #X#Xi.g k g.#X#X` c m.A.G.@X#X#X#X#X#X#X",
"#X#X#X#X#X{._.!.(.:.#X#X#X#Xu.K E 9.#X#X#X#X].Q.~.E.*.#X#X#X#X#X",
"#X#X#X#XX.#.#.#X#X#X#X#X#X#X5.0 w ..#X#X#X#X#X#X#X&.$.X.#X#X#X#X",
"#X#X#X#X#X#X#X#X#X#X#X#X#X#X{ B D [ #X#X#X#X#X#X#X#X#X#X#X#X#X#X",
"#X#X#X#X#X#X#X#X#X#X#X#X#X#XY.V.V.}.#X#X#X#X#X#X#X#X#X#X#X#X#X#X",
"#X#X#X#X#X#X#X#X#X#X#X#X#X#X|.H.K.#X#X#X#X#X#X#X#X  #X#X#X#X#X#X",
"#X#X#X#X#X#X#X#X#X#X#X#X#X#X#X/.`.#X#X#X#X#X#X#X#X#X#X#X#X#X#X#X",
"#X#X#X#X#X#X#X#X#X#X#X#X#X#X#XXX;.#X#X#X#X#X#X#X#X#X#X#X#X#X#X#X",
"#X#X#X#X#X#X#X#X#X#X#X#X#X#X#XO.X.#X#X#X#X#X#X#X#X#X#X#X#X#X#X#X",
"#X#X#X#X#X#X#X#X#X#X#X#X#X#X#X#X#X#X#X#X#X#X#X#X#X#X#X#X#X#X#X#X",
"#X#X#X#X#X#X#X#X#X#X#X#X#X#X#X#X#X#X#X#X#X#X#X#X#X#X#X#X#X#X#X#X",
"#X#X#X#X#X#X#X#X#X#X#X#X#X#X#X#X#X#X#X#X#X#X#X#X#X#X#X#X#X#X#X#X"
};
