<?xml version="1.0" encoding="UTF-8" standalone="no"?>
<!-- Created with Inkscape (http://www.inkscape.org/) -->

<svg
   xmlns:dc="http://purl.org/dc/elements/1.1/"
   xmlns:cc="http://creativecommons.org/ns#"
   xmlns:rdf="http://www.w3.org/1999/02/22-rdf-syntax-ns#"
   xmlns:svg="http://www.w3.org/2000/svg"
   xmlns="http://www.w3.org/2000/svg"
   xmlns:sodipodi="http://sodipodi.sourceforge.net/DTD/sodipodi-0.dtd"
   xmlns:inkscape="http://www.inkscape.org/namespaces/inkscape"
   width="266.66071"
   height="266.65625"
   id="svg2"
   version="1.1"
   inkscape:version="0.48.3.1 r9886"
   sodipodi:docname="rastools.svg"
   inkscape:export-filename="/home/dave/rastools_64x64.png"
   inkscape:export-xdpi="21.600483"
   inkscape:export-ydpi="21.600483">
  <defs
     id="defs4" />
  <sodipodi:namedview
     id="base"
     pagecolor="#ffffff"
     bordercolor="#666666"
     borderopacity="1.0"
     inkscape:pageopacity="0.0"
     inkscape:pageshadow="2"
     inkscape:zoom="1.979899"
     inkscape:cx="77.754975"
     inkscape:cy="114.01022"
     inkscape:document-units="px"
     inkscape:current-layer="layer1"
     showgrid="false"
     showguides="true"
     inkscape:guide-bbox="true"
     inkscape:window-width="1197"
     inkscape:window-height="880"
     inkscape:window-x="594"
     inkscape:window-y="126"
     inkscape:window-maximized="0"
     fit-margin-top="0"
     fit-margin-left="14.79"
     fit-margin-right="14.79"
     fit-margin-bottom="0">
    <sodipodi:guide
       orientation="1,0"
       position="132.82349,204.03541"
       id="guide2993" />
    <sodipodi:guide
       orientation="0,1"
       position="227.77783,134.33489"
       id="guide2995" />
  </sodipodi:namedview>
  <metadata
     id="metadata7">
    <rdf:RDF>
      <cc:Work
         rdf:about="">
        <dc:format>image/svg+xml</dc:format>
        <dc:type
           rdf:resource="http://purl.org/dc/dcmitype/StillImage" />
        <dc:title></dc:title>
      </cc:Work>
    </rdf:RDF>
  </metadata>
  <g
     inkscape:label="Layer 1"
     inkscape:groupmode="layer"
     id="layer1"
     transform="translate(-184.36441,-120)">
    <g
       id="g3854">
      <path
         inkscape:connector-curvature="0"
         id="path3805"
         d="m 317.1879,252.32136 c -10.13611,6.26647 -17.72363,31.62721 -17.72363,61.96931 0,30.34207 7.58752,55.70284 17.72363,61.9693 10.14509,-6.24762 17.74898,-31.60934 17.74898,-61.9693 0,-30.35997 -7.60389,-55.72169 -17.74898,-61.96931 z"
         style="fill:#004bfe;fill-opacity:0.50196078;stroke:none" />
      <path
         inkscape:connector-curvature="0"
         id="path3805-8"
         d="m 317.1879,252.32136 c -8.50328,5.25701 -14.86853,26.53238 -14.86853,51.98667 0,25.45426 6.36525,46.72967 14.86853,51.98667 8.51082,-5.2412 14.88979,-26.5174 14.88979,-51.98667 0,-25.46928 -6.37897,-46.74548 -14.88979,-51.98667 z"
         style="fill:#28dad1;fill-opacity:0.50196078;stroke:none" />
      <path
         style="fill:#9fea5a;fill-opacity:0.50196078;stroke:none"
         d="m 317.1879,252.32136 c -7.27866,4.49991 -12.7272,22.71126 -12.7272,44.49969 0,21.78841 5.44854,39.99979 12.7272,44.49969 7.28511,-4.48638 12.7454,-22.69844 12.7454,-44.49969 0,-21.80126 -5.46029,-40.01332 -12.7454,-44.49969 z"
         id="path3848"
         inkscape:connector-curvature="0" />
      <path
         inkscape:connector-curvature="0"
         id="path3850"
         d="m 317.1879,252.32136 c -5.64583,3.49044 -9.8721,17.61643 -9.8721,34.51705 0,16.9006 4.22627,31.02661 9.8721,34.51704 5.65084,-3.47995 9.88621,-17.60648 9.88621,-34.51704 0,-16.91057 -4.23537,-31.03711 -9.88621,-34.51705 z"
         style="fill:#d69226;fill-opacity:0.50196078;stroke:none" />
      <path
         style="fill:#be3505;fill-opacity:0.75294118;stroke:none"
         d="m 317.1879,252.32136 c -4.013,2.48098 -7.017,12.5216 -7.017,24.5344 0,12.01279 3.004,22.05343 7.017,24.5344 4.01656,-2.47352 7.02703,-12.51453 7.02703,-24.5344 0,-12.01987 -3.01047,-22.06089 -7.02703,-24.5344 z"
         id="path3852"
         inkscape:connector-curvature="0" />
    </g>
    <g
       id="g3861"
       inkscape:transform-center-y="30.979588"
       transform="matrix(0.5,0.8660254,-0.8660254,0.5,377.117,-148.54308)"
       inkscape:transform-center-x="53.673324">
      <path
         style="fill:#004bfe;fill-opacity:0.50196078;stroke:none"
         d="m 317.1879,252.32136 c -10.13611,6.26647 -17.72363,31.62721 -17.72363,61.96931 0,30.34207 7.58752,55.70284 17.72363,61.9693 10.14509,-6.24762 17.74898,-31.60934 17.74898,-61.9693 0,-30.35997 -7.60389,-55.72169 -17.74898,-61.96931 z"
         id="path3863"
         inkscape:connector-curvature="0" />
      <path
         style="fill:#28dad1;fill-opacity:0.50196078;stroke:none"
         d="m 317.1879,252.32136 c -8.50328,5.25701 -14.86853,26.53238 -14.86853,51.98667 0,25.45426 6.36525,46.72967 14.86853,51.98667 8.51082,-5.2412 14.88979,-26.5174 14.88979,-51.98667 0,-25.46928 -6.37897,-46.74548 -14.88979,-51.98667 z"
         id="path3865"
         inkscape:connector-curvature="0" />
      <path
         inkscape:connector-curvature="0"
         id="path3867"
         d="m 317.1879,252.32136 c -7.27866,4.49991 -12.7272,22.71126 -12.7272,44.49969 0,21.78841 5.44854,39.99979 12.7272,44.49969 7.28511,-4.48638 12.7454,-22.69844 12.7454,-44.49969 0,-21.80126 -5.46029,-40.01332 -12.7454,-44.49969 z"
         style="fill:#9fea5a;fill-opacity:0.50196078;stroke:none" />
      <path
         style="fill:#d69226;fill-opacity:0.50196078;stroke:none"
         d="m 317.1879,252.32136 c -5.64583,3.49044 -9.8721,17.61643 -9.8721,34.51705 0,16.9006 4.22627,31.02661 9.8721,34.51704 5.65084,-3.47995 9.88621,-17.60648 9.88621,-34.51704 0,-16.91057 -4.23537,-31.03711 -9.88621,-34.51705 z"
         id="path3869"
         inkscape:connector-curvature="0" />
      <path
         inkscape:connector-curvature="0"
         id="path3871"
         d="m 317.1879,252.32136 c -4.013,2.48098 -7.017,12.5216 -7.017,24.5344 0,12.01279 3.004,22.05343 7.017,24.5344 4.01656,-2.47352 7.02703,-12.51453 7.02703,-24.5344 0,-12.01987 -3.01047,-22.06089 -7.02703,-24.5344 z"
         style="fill:#be3505;fill-opacity:0.75294118;stroke:none" />
    </g>
    <g
       inkscape:transform-center-x="53.660644"
       transform="matrix(-0.5,0.8660254,-0.8660254,-0.5,694.31758,103.77829)"
       inkscape:transform-center-y="-30.989707"
       id="g3873">
      <path
         inkscape:connector-curvature="0"
         id="path3875"
         d="m 317.1879,252.32136 c -10.13611,6.26647 -17.72363,31.62721 -17.72363,61.96931 0,30.34207 7.58752,55.70284 17.72363,61.9693 10.14509,-6.24762 17.74898,-31.60934 17.74898,-61.9693 0,-30.35997 -7.60389,-55.72169 -17.74898,-61.96931 z"
         style="fill:#004bfe;fill-opacity:0.50196078;stroke:none" />
      <path
         inkscape:connector-curvature="0"
         id="path3877"
         d="m 317.1879,252.32136 c -8.50328,5.25701 -14.86853,26.53238 -14.86853,51.98667 0,25.45426 6.36525,46.72967 14.86853,51.98667 8.51082,-5.2412 14.88979,-26.5174 14.88979,-51.98667 0,-25.46928 -6.37897,-46.74548 -14.88979,-51.98667 z"
         style="fill:#28dad1;fill-opacity:0.50196078;stroke:none" />
      <path
         style="fill:#9fea5a;fill-opacity:0.50196078;stroke:none"
         d="m 317.1879,252.32136 c -7.27866,4.49991 -12.7272,22.71126 -12.7272,44.49969 0,21.78841 5.44854,39.99979 12.7272,44.49969 7.28511,-4.48638 12.7454,-22.69844 12.7454,-44.49969 0,-21.80126 -5.46029,-40.01332 -12.7454,-44.49969 z"
         id="path3879"
         inkscape:connector-curvature="0" />
      <path
         inkscape:connector-curvature="0"
         id="path3881"
         d="m 317.1879,252.32136 c -5.64583,3.49044 -9.8721,17.61643 -9.8721,34.51705 0,16.9006 4.22627,31.02661 9.8721,34.51704 5.65084,-3.47995 9.88621,-17.60648 9.88621,-34.51704 0,-16.91057 -4.23537,-31.03711 -9.88621,-34.51705 z"
         style="fill:#d69226;fill-opacity:0.50196078;stroke:none" />
      <path
         style="fill:#be3505;fill-opacity:0.75294118;stroke:none"
         d="m 317.1879,252.32136 c -4.013,2.48098 -7.017,12.5216 -7.017,24.5344 0,12.01279 3.004,22.05343 7.017,24.5344 4.01656,-2.47352 7.02703,-12.51453 7.02703,-24.5344 0,-12.01987 -3.01047,-22.06089 -7.02703,-24.5344 z"
         id="path3883"
         inkscape:connector-curvature="0" />
    </g>
    <g
       id="g3885"
       inkscape:transform-center-y="-61.969294"
       transform="matrix(-1,0,0,-1,634.40115,504.64273)">
      <path
         style="fill:#004bfe;fill-opacity:0.50196078;stroke:none"
         d="m 317.1879,252.32136 c -10.13611,6.26647 -17.72363,31.62721 -17.72363,61.96931 0,30.34207 7.58752,55.70284 17.72363,61.9693 10.14509,-6.24762 17.74898,-31.60934 17.74898,-61.9693 0,-30.35997 -7.60389,-55.72169 -17.74898,-61.96931 z"
         id="path3887"
         inkscape:connector-curvature="0" />
      <path
         style="fill:#28dad1;fill-opacity:0.50196078;stroke:none"
         d="m 317.1879,252.32136 c -8.50328,5.25701 -14.86853,26.53238 -14.86853,51.98667 0,25.45426 6.36525,46.72967 14.86853,51.98667 8.51082,-5.2412 14.88979,-26.5174 14.88979,-51.98667 0,-25.46928 -6.37897,-46.74548 -14.88979,-51.98667 z"
         id="path3889"
         inkscape:connector-curvature="0" />
      <path
         inkscape:connector-curvature="0"
         id="path3891"
         d="m 317.1879,252.32136 c -7.27866,4.49991 -12.7272,22.71126 -12.7272,44.49969 0,21.78841 5.44854,39.99979 12.7272,44.49969 7.28511,-4.48638 12.7454,-22.69844 12.7454,-44.49969 0,-21.80126 -5.46029,-40.01332 -12.7454,-44.49969 z"
         style="fill:#9fea5a;fill-opacity:0.50196078;stroke:none" />
      <path
         style="fill:#d69226;fill-opacity:0.50196078;stroke:none"
         d="m 317.1879,252.32136 c -5.64583,3.49044 -9.8721,17.61643 -9.8721,34.51705 0,16.9006 4.22627,31.02661 9.8721,34.51704 5.65084,-3.47995 9.88621,-17.60648 9.88621,-34.51704 0,-16.91057 -4.23537,-31.03711 -9.88621,-34.51705 z"
         id="path3893"
         inkscape:connector-curvature="0" />
      <path
         inkscape:connector-curvature="0"
         id="path3895"
         d="m 317.1879,252.32136 c -4.013,2.48098 -7.017,12.5216 -7.017,24.5344 0,12.01279 3.004,22.05343 7.017,24.5344 4.01656,-2.47352 7.02703,-12.51453 7.02703,-24.5344 0,-12.01987 -3.01047,-22.06089 -7.02703,-24.5344 z"
         style="fill:#be3505;fill-opacity:0.75294118;stroke:none" />
    </g>
    <g
       transform="matrix(-0.5,-0.8660254,0.8660254,-0.5,257.28415,653.1858)"
       inkscape:transform-center-y="-30.979587"
       id="g3897"
       inkscape:transform-center-x="-53.673324">
      <path
         inkscape:connector-curvature="0"
         id="path3899"
         d="m 317.1879,252.32136 c -10.13611,6.26647 -17.72363,31.62721 -17.72363,61.96931 0,30.34207 7.58752,55.70284 17.72363,61.9693 10.14509,-6.24762 17.74898,-31.60934 17.74898,-61.9693 0,-30.35997 -7.60389,-55.72169 -17.74898,-61.96931 z"
         style="fill:#004bfe;fill-opacity:0.50196078;stroke:none" />
      <path
         inkscape:connector-curvature="0"
         id="path3901"
         d="m 317.1879,252.32136 c -8.50328,5.25701 -14.86853,26.53238 -14.86853,51.98667 0,25.45426 6.36525,46.72967 14.86853,51.98667 8.51082,-5.2412 14.88979,-26.5174 14.88979,-51.98667 0,-25.46928 -6.37897,-46.74548 -14.88979,-51.98667 z"
         style="fill:#28dad1;fill-opacity:0.50196078;stroke:none" />
      <path
         style="fill:#9fea5a;fill-opacity:0.50196078;stroke:none"
         d="m 317.1879,252.32136 c -7.27866,4.49991 -12.7272,22.71126 -12.7272,44.49969 0,21.78841 5.44854,39.99979 12.7272,44.49969 7.28511,-4.48638 12.7454,-22.69844 12.7454,-44.49969 0,-21.80126 -5.46029,-40.01332 -12.7454,-44.49969 z"
         id="path3903"
         inkscape:connector-curvature="0" />
      <path
         inkscape:connector-curvature="0"
         id="path3905"
         d="m 317.1879,252.32136 c -5.64583,3.49044 -9.8721,17.61643 -9.8721,34.51705 0,16.9006 4.22627,31.02661 9.8721,34.51704 5.65084,-3.47995 9.88621,-17.60648 9.88621,-34.51704 0,-16.91057 -4.23537,-31.03711 -9.88621,-34.51705 z"
         style="fill:#d69226;fill-opacity:0.50196078;stroke:none" />
      <path
         style="fill:#be3505;fill-opacity:0.75294118;stroke:none"
         d="m 317.1879,252.32136 c -4.013,2.48098 -7.017,12.5216 -7.017,24.5344 0,12.01279 3.004,22.05343 7.017,24.5344 4.01656,-2.47352 7.02703,-12.51453 7.02703,-24.5344 0,-12.01987 -3.01047,-22.06089 -7.02703,-24.5344 z"
         id="path3907"
         inkscape:connector-curvature="0" />
    </g>
    <g
       inkscape:transform-center-x="-53.660647"
       id="g3909"
       inkscape:transform-center-y="30.989708"
       transform="matrix(0.5,-0.8660254,0.8660254,0.5,-59.916427,400.86443)">
      <path
         style="fill:#004bfe;fill-opacity:0.50196078;stroke:none"
         d="m 317.1879,252.32136 c -10.13611,6.26647 -17.72363,31.62721 -17.72363,61.96931 0,30.34207 7.58752,55.70284 17.72363,61.9693 10.14509,-6.24762 17.74898,-31.60934 17.74898,-61.9693 0,-30.35997 -7.60389,-55.72169 -17.74898,-61.96931 z"
         id="path3911"
         inkscape:connector-curvature="0" />
      <path
         style="fill:#28dad1;fill-opacity:0.50196078;stroke:none"
         d="m 317.1879,252.32136 c -8.50328,5.25701 -14.86853,26.53238 -14.86853,51.98667 0,25.45426 6.36525,46.72967 14.86853,51.98667 8.51082,-5.2412 14.88979,-26.5174 14.88979,-51.98667 0,-25.46928 -6.37897,-46.74548 -14.88979,-51.98667 z"
         id="path3913"
         inkscape:connector-curvature="0" />
      <path
         inkscape:connector-curvature="0"
         id="path3915"
         d="m 317.1879,252.32136 c -7.27866,4.49991 -12.7272,22.71126 -12.7272,44.49969 0,21.78841 5.44854,39.99979 12.7272,44.49969 7.28511,-4.48638 12.7454,-22.69844 12.7454,-44.49969 0,-21.80126 -5.46029,-40.01332 -12.7454,-44.49969 z"
         style="fill:#9fea5a;fill-opacity:0.50196078;stroke:none" />
      <path
         style="fill:#d69226;fill-opacity:0.50196078;stroke:none"
         d="m 317.1879,252.32136 c -5.64583,3.49044 -9.8721,17.61643 -9.8721,34.51705 0,16.9006 4.22627,31.02661 9.8721,34.51704 5.65084,-3.47995 9.88621,-17.60648 9.88621,-34.51704 0,-16.91057 -4.23537,-31.03711 -9.88621,-34.51705 z"
         id="path3917"
         inkscape:connector-curvature="0" />
      <path
         inkscape:connector-curvature="0"
         id="path3919"
         d="m 317.1879,252.32136 c -4.013,2.48098 -7.017,12.5216 -7.017,24.5344 0,12.01279 3.004,22.05343 7.017,24.5344 4.01656,-2.47352 7.02703,-12.51453 7.02703,-24.5344 0,-12.01987 -3.01047,-22.06089 -7.02703,-24.5344 z"
         style="fill:#be3505;fill-opacity:0.75294118;stroke:none" />
    </g>
    <path
       sodipodi:type="arc"
       style="fill:#000000;fill-opacity:1;stroke:none"
       id="path2985"
       sodipodi:cx="317.69296"
       sodipodi:cy="252.82645"
       sodipodi:rx="28.789347"
       sodipodi:ry="28.789347"
       d="m 346.48231,252.82645 c 0,15.89991 -12.88943,28.78934 -28.78935,28.78934 -15.89991,0 -28.78934,-12.88943 -28.78934,-28.78934 0,-15.89992 12.88943,-28.78935 28.78934,-28.78935 15.89992,0 28.78935,12.88943 28.78935,28.78935 z" />
    <g
       id="g3778"
       transform="matrix(0.5,0.8660254,-0.8660254,0.5,378.23801,-148.46442)">
      <path
         sodipodi:type="arc"
         style="fill:none;stroke:#000000;stroke-width:2;stroke-miterlimit:4;stroke-opacity:1;stroke-dasharray:none"
         id="path3780"
         sodipodi:cx="317.69296"
         sodipodi:cy="253.33151"
         sodipodi:rx="52.022858"
         sodipodi:ry="132.32999"
         d="m 369.71582,253.33151 c 0,73.08384 -23.29143,132.32999 -52.02286,132.32999 -28.73143,0 -52.02286,-59.24615 -52.02286,-132.32999 0,-73.08383 23.29143,-132.32998 52.02286,-132.32998 28.73143,0 52.02286,59.24615 52.02286,132.32998 z" />
      <path
         sodipodi:type="arc"
         style="fill:#000000;fill-opacity:1;stroke:none"
         id="path3782"
         sodipodi:cx="349.28571"
         sodipodi:cy="146.29076"
         sodipodi:rx="3.9285715"
         sodipodi:ry="3.9285715"
         d="m 353.21428,146.29076 c 0,2.16969 -1.75888,3.92857 -3.92857,3.92857 -2.16969,0 -3.92858,-1.75888 -3.92858,-3.92857 0,-2.16969 1.75889,-3.92858 3.92858,-3.92858 2.16969,0 3.92857,1.75889 3.92857,3.92858 z"
         transform="translate(-1.0714286,-0.71428572)" />
      <path
         transform="translate(-60.000001,216.78571)"
         d="m 353.21428,146.29076 c 0,2.16969 -1.75888,3.92857 -3.92857,3.92857 -2.16969,0 -3.92858,-1.75888 -3.92858,-3.92857 0,-2.16969 1.75889,-3.92858 3.92858,-3.92858 2.16969,0 3.92857,1.75889 3.92857,3.92858 z"
         sodipodi:ry="3.9285715"
         sodipodi:rx="3.9285715"
         sodipodi:cy="146.29076"
         sodipodi:cx="349.28571"
         id="path3784"
         style="fill:#000000;fill-opacity:1;stroke:none"
         sodipodi:type="arc" />
    </g>
    <g
       id="g3786"
       transform="matrix(0.5,-0.8660254,0.8660254,0.5,-60.545044,401.79593)">
      <path
         sodipodi:type="arc"
         style="fill:none;stroke:#000000;stroke-width:2;stroke-miterlimit:4;stroke-opacity:1;stroke-dasharray:none"
         id="path3788"
         sodipodi:cx="317.69296"
         sodipodi:cy="253.33151"
         sodipodi:rx="52.022858"
         sodipodi:ry="132.32999"
         d="m 369.71582,253.33151 c 0,73.08384 -23.29143,132.32999 -52.02286,132.32999 -28.73143,0 -52.02286,-59.24615 -52.02286,-132.32999 0,-73.08383 23.29143,-132.32998 52.02286,-132.32998 28.73143,0 52.02286,59.24615 52.02286,132.32998 z" />
      <path
         sodipodi:type="arc"
         style="fill:#000000;fill-opacity:1;stroke:none"
         id="path3790"
         sodipodi:cx="349.28571"
         sodipodi:cy="146.29076"
         sodipodi:rx="3.9285715"
         sodipodi:ry="3.9285715"
         d="m 353.21428,146.29076 c 0,2.16969 -1.75888,3.92857 -3.92857,3.92857 -2.16969,0 -3.92858,-1.75888 -3.92858,-3.92857 0,-2.16969 1.75889,-3.92858 3.92858,-3.92858 2.16969,0 3.92857,1.75889 3.92857,3.92858 z"
         transform="translate(-1.0714286,-0.71428572)" />
      <path
         transform="translate(-60.000001,216.78571)"
         d="m 353.21428,146.29076 c 0,2.16969 -1.75888,3.92857 -3.92857,3.92857 -2.16969,0 -3.92858,-1.75888 -3.92858,-3.92857 0,-2.16969 1.75889,-3.92858 3.92858,-3.92858 2.16969,0 3.92857,1.75889 3.92857,3.92858 z"
         sodipodi:ry="3.9285715"
         sodipodi:rx="3.9285715"
         sodipodi:cy="146.29076"
         sodipodi:cx="349.28571"
         id="path3792"
         style="fill:#000000;fill-opacity:1;stroke:none"
         sodipodi:type="arc" />
    </g>
    <g
       id="g3773">
      <path
         d="m 369.71582,253.33151 c 0,73.08384 -23.29143,132.32999 -52.02286,132.32999 -28.73143,0 -52.02286,-59.24615 -52.02286,-132.32999 0,-73.08383 23.29143,-132.32998 52.02286,-132.32998 28.73143,0 52.02286,59.24615 52.02286,132.32998 z"
         sodipodi:ry="132.32999"
         sodipodi:rx="52.022858"
         sodipodi:cy="253.33151"
         sodipodi:cx="317.69296"
         id="path2987"
         style="fill:none;stroke:#000000;stroke-width:2;stroke-miterlimit:4;stroke-opacity:1;stroke-dasharray:none"
         sodipodi:type="arc" />
      <path
         transform="translate(-1.0714286,-0.71428572)"
         d="m 353.21428,146.29076 c 0,2.16969 -1.75888,3.92857 -3.92857,3.92857 -2.16969,0 -3.92858,-1.75888 -3.92858,-3.92857 0,-2.16969 1.75889,-3.92858 3.92858,-3.92858 2.16969,0 3.92857,1.75889 3.92857,3.92858 z"
         sodipodi:ry="3.9285715"
         sodipodi:rx="3.9285715"
         sodipodi:cy="146.29076"
         sodipodi:cx="349.28571"
         id="path3001"
         style="fill:#000000;fill-opacity:1;stroke:none"
         sodipodi:type="arc" />
      <path
         sodipodi:type="arc"
         style="fill:#000000;fill-opacity:1;stroke:none"
         id="path3771"
         sodipodi:cx="349.28571"
         sodipodi:cy="146.29076"
         sodipodi:rx="3.9285715"
         sodipodi:ry="3.9285715"
         d="m 353.21428,146.29076 c 0,2.16969 -1.75888,3.92857 -3.92857,3.92857 -2.16969,0 -3.92858,-1.75888 -3.92858,-3.92857 0,-2.16969 1.75889,-3.92858 3.92858,-3.92858 2.16969,0 3.92857,1.75889 3.92857,3.92858 z"
         transform="translate(-60.000001,216.78571)" />
    </g>
  </g>
</svg>
